PathFileType	4	(X/Y/Z)	C:/Users/beibeiliu/ov580/test_trc\sequence.29_training_dense_right.trc
DataRate	CameraRate	NumFrames	NumMarkers	Units	OrigDataRate	OrigDataStartFrame	OrigNumFrames
120	120	16	19	mm	120	143	200
Frame#	Time	ThumbCMC			ThumbMCP			ThumbIP			ThumbTip			IndexMCP			IndexPIP			IndexTip			MiddleMCP			MiddlePIP			MiddleTip			RingMCP			RingPIP			RingTip			PinkyMCP			PinkyPIP			PinkyTip			BackHand1			BackHand2			BackHand3	
		X0	Y0	Z0	X1	Y1	Z1	X2	Y2	Z2	X3	Y3	Z3	X4	Y4	Z4	X5	Y5	Z5	X6	Y6	Z6	X7	Y7	Z7	X8	Y8	Z8	X9	Y9	Z9	X10	Y10	Z10	X11	Y11	Z11	X12	Y12	Z12	X13	Y13	Z13	X14	Y14	Z14	X15	Y15	Z15	X16	Y16	Z16	X17	Y17	Z17	X18	Y18	Z18	
142	1.18333	80.5888	-0.109323	132.479	57.7577	-3.39639	115.575	44.9473	-3.99846	90.6561	40.1612	-11.6646	71.5973	103.961	1.05129	63.2707	96.9137	0.514938	38.1881	92.0558	-5.08739	12.6854	121.311	-19.8115	57.2428	116.084	-29.0235	32.6926	101.906	-45.1573	4.68613	130.19	-38.6968	59.9747	124.249	-46.7407	40.2347	109.01	-63.5356	14.965	137.876	-58.0828	77.0406	132.953	-66.8802	56.2888	127.744	-83.9366	33.0258	137.577	-26.6071	117.786	142.875	-26.3099	141.927	119.755	0.485258	125.887	
143	1.19167	84.3608	-3.32922	132.764	60.7364	-5.76594	117.06	45.9349	-5.44507	90.5783	42.0892	-11.9136	67.0139	104.835	0.285022	66.6055	98.2214	-0.622835	35.7547	95.9117	-9.95965	11.6942	123.667	-20.1496	60.5228	118.772	-29.3518	32.7975	104.195	-44.097	5.73707	133.075	-37.8582	66.7062	128.595	-51.6431	36.5415	115.93	-61.509	16.6053	140.81	-58.2268	80.8891	137.32	-69.2846	58.3108	129.985	-77.7635	32.3451	140.731	-25.3529	113.758	140.082	-25.6385	148.468	119.962	-3.8469	126.796	
144	1.2	86.6088	-5.16591	139.919	62.6848	-7.42636	117.492	52.0912	-8.22759	92.9885	44.5382	-12.0289	70.9087	108.6	-0.43846	64.8519	104.953	-4.56676	36.9325	97.6529	-8.30257	14.953	124.802	-19.1069	63.4706	121.013	-29.7592	33.1574	110.262	-42.7842	9.0549	137.515	-38.7644	65.4376	135.048	-49.5037	43.2997	122.828	-62.6589	16.1809	146.157	-59.5896	81.1545	141.442	-68.3255	55.0168	136.702	-76.7913	36.3981	142.419	-29.3653	115.973	142.964	-26.0973	150.985	124.82	-3.32227	128.071	
145	1.20833	89.3125	-6.65401	140.89	68.0868	-9.61553	117.166	53.982	-8.77094	95.2097	49.302	-12.8209	71.819	114.04	-3.13404	67.623	109.048	-3.274	42.9694	102.176	-9.64601	16.9166	131.071	-19.5068	66.6231	126.576	-27.4416	37.3489	116.964	-43.0127	12.1005	141.878	-36.8162	69.5604	139.411	-46.7737	42.8271	129.565	-60.8065	19.4743	149.02	-56.7606	84.701	147.783	-66.1643	61.2925	144.937	-80.2479	37.8238	148.528	-31.7107	123.447	146.39	-27.9511	152.467	129.025	-6.0789	133.139	
146	1.21667	90.6588	-5.24608	140.078	70.8817	-10.3739	122.438	57.6026	-9.24761	95.6256	51.6485	-14.1689	76.2709	113.675	2.91562	69.7531	109.06	0.996666	47.7664	106.131	-10.317	18.0675	132.655	-16.9014	68.7176	129.385	-25.2524	38.918	118.63	-41.337	11.6111	144.729	-34.9122	74.0931	142.367	-43.6267	45.3607	133.787	-54.8327	22.3349	153.833	-54.4142	83.4358	150.976	-62.8742	60.4795	144.991	-72.3969	37.1072	149.442	-24.0992	122.624	148.085	-27.2101	153.367	127.889	-4.21827	137.924	
147	1.225	89.5636	-2.8005	143.184	70.0931	-9.87696	124.49	57.8613	-9.71985	100.042	52.4728	-14.0275	77.6683	116.375	3.23382	74.7558	111.708	2.94903	47.4814	105.651	-5.69152	20.3366	136.003	-14.3484	68.0091	129.27	-20.3957	38.0983	117.275	-33.9554	13.0299	144.936	-29.232	74.3851	144.766	-38.1849	48.4467	135.389	-49.5372	23.2007	152.33	-47.5956	87.9372	153.363	-58.9115	64.6136	152.125	-69.1082	40.4668	150.111	-21.3145	126.932	148.104	-22.1248	153.303	129.323	-2.0339	140.318	
148	1.23333	91.2642	-2.59053	143.859	67.9982	-8.49567	122.839	54.7391	-8.29026	97.8461	48.0785	-12.9675	78.4337	114.703	8.82773	72.9272	110.222	5.33298	44.7432	103.112	-0.0444063	19.7557	133.715	-9.25638	67.5975	131.463	-16.5239	42.0079	119.58	-32.2645	13.6428	144.84	-24.843	71.6202	145.719	-34.611	47.5873	133.487	-44.2456	22.8898	155.363	-45.558	83.3555	155.232	-57.891	60.8589	149.25	-66.3306	36.4195	150.834	-20.8697	124.041	149.397	-19.5081	154.924	131.393	1.52213	139.822	
149	1.24167	88.3603	0.355857	141.99	69.7142	-9.17404	123.524	52.1553	-9.35206	96.3587	49.3123	-16.4919	74.6712	115.683	10.5767	71.4916	109.981	9.0365	46.1483	105.797	2.95855	20.7798	132.495	-3.76361	66.9168	128.014	-10.5462	38.1341	118.456	-26.0034	10.2804	143.38	-19.6286	69.0373	142.617	-28.0831	44.6758	131.529	-40.3426	15.8248	153.972	-40.2472	78.4117	154.107	-49.5824	56.0043	148.575	-58.6868	31.3974	150.613	-15.0368	122.029	151.822	-17.4553	150.978	127.641	7.16026	134.845	
150	1.25	90.6309	6.19792	136.118	70.4979	-4.77392	112.009	56.6165	-7.16501	90.5591	48.6741	-10.4347	66.4179	112.827	24.5997	67.2335	106.401	24.8941	41.6958	99.2671	16.7588	12.1414	133.58	8.81456	58.438	127.467	2.43156	29.2607	115.737	-11.017	3.44896	145.156	-7.00312	63.4103	141.322	-12.7872	32.7284	129.928	-20.9382	12.0226	153.506	-24.5852	72.8764	154.582	-31.6177	50.2127	148.164	-40.5347	22.6461	152.064	-3.04469	113.352	151.871	-6.87104	142.41	129.91	15.4154	128.903	
151	1.25833	92.9272	21.7499	127.033	73.4186	8.154	104.682	65.4035	6.74914	77.4512	59.6331	2.53501	55.4737	114.036	48.3132	64.5535	110.065	45.367	38.0559	101.729	37.9791	8.91342	135.929	34.2483	56.5671	127.79	31.9391	26.9432	113.14	21.704	2.11591	149.64	18.6585	51.8066	142.45	14.682	25.7027	129.575	5.95957	6.36682	160.139	-0.729043	63.5854	153.705	-2.53875	37.5085	142.258	-10.0816	12.9237	155.047	17.2459	108.67	158.11	6.36373	139.397	132.382	33.1912	126.127	
152	1.26667	100.421	38.8186	124.022	81.2739	28.1888	98.2242	69.6259	29.5354	67.239	68.0795	29.4136	46.6636	119.355	74.3313	64.802	109.543	74.3461	37.9749	100.893	65.2399	13.2337	136.714	65.8278	51.2514	123.969	63.7146	26.6588	112.058	49.963	1.44272	149.889	49.2544	53.1276	140.033	48.7365	28.8535	123.919	40.4519	6.3164	158.397	32.2525	58.9678	150.869	29.1135	30.4291	138.186	26.7264	11.7918	163.853	39.7697	106.283	157.28	28.3293	136.073	134.817	54.1638	128.296	
153	1.275	100.723	56.761	126.581	84.3774	50.6759	94.437	75.9215	55.9795	64.5957	73.8013	56.5177	43.5457	113.891	101.527	68.3799	104.905	98.5093	42.9246	95.8183	87.6373	19.9112	132.855	91.7779	60.782	118.917	86.6219	29.4025	99.3679	75.7128	7.724	144.986	78.1354	52.1289	133.09	72.9754	28.3902	116.378	63.335	8.39978	156.954	60.0166	56.8516	144.304	57.7642	32.57	125.173	55.3452	14.0882	163.174	63.1968	105.814	162.286	49.4811	131.597	137.552	71.9913	130.529	
154	1.28333	101.231	68.5019	127.069	85.3288	66.7688	94.602	79.0922	73.0387	67.3146	79.0766	79.0369	43.6513	110.242	114.435	70.4066	95.3941	111.667	47.7598	85.6437	97.875	26.7926	127.921	106.031	61.6428	113.137	100.939	37.7505	90.4814	86.8966	16.1769	142.113	92.333	56.956	129.025	85.9923	32.5866	105.704	78.4109	16.7797	154.274	74.9725	57.8163	140.073	73.0682	36.6377	120.007	67.2992	18.6611	158.451	76.9646	109.278	161.768	58.4515	132.347	135.435	87.5496	133.578	
155	1.29167	101.802	72.0676	128.459	85.0104	72.4949	95.4673	78.7925	81.1407	67.4314	84.6056	86.4653	46.1105	108.705	118.835	73.6955	93.2259	111.684	50.376	81.3457	102.649	33.7969	122.562	112.834	63.0533	108.518	103.324	37.5112	86.7326	88.2186	20.0973	141.132	95.2963	57.8899	123.332	90.0709	33.4918	99.4913	77.9335	19.8448	153.765	80.9393	58.9884	134.372	75.8507	36.0959	109.809	67.8571	24.9978	161.763	84.0067	106.53	160.89	62.7992	131.972	135.902	88.8437	133.987	
156	1.3	99.6946	74.3188	127.688	86.6635	70.1697	97.3963	80.9256	78.5079	70.0177	81.8149	85.7513	47.9895	106.304	119.414	75.7581	91.0456	112.172	51.6129	80.2369	99.8671	34.8875	125.131	110.153	63.0459	108.192	105.762	43.8211	88.8111	84.6885	20.9194	136.732	98.8158	56.237	118.965	89.7286	35.4194	97.7345	76.0358	23.4094	153.505	80.2506	58.4748	133.901	77.133	40.1269	106.702	63.3199	30.0032	160.192	85.3004	107.508	158.99	64.5052	133.992	137.981	91.5551	134.638	
157	1.30833	99.4425	72.4549	129.006	87.6586	73.5039	92.7137	81.5656	80.7614	66.4748	86.0936	86.3275	44.7076	110.426	117.707	77.8483	91.4878	112.804	54.9093	79.1597	97.2168	33.5512	124.349	111.237	62.4482	109.677	100.886	39.5278	91.1984	83.1497	21.1795	142.369	94.4587	57.1623	124.349	89.3408	37.2758	103.442	72.8263	22.6308	156.075	79.5219	58.2493	136.04	75.2614	40.5396	111.561	61.6084	33.6559	162.637	82.6014	112.791	161.227	65.9849	137.327	135.346	92.0606	135.525	
